<svg width="512" height="512" viewBox="0 0 512 512" fill="none" xmlns="http://www.w3.org/2000/svg">
<rect width="512" height="512" rx="24" fill="black"/>
<rect x="94" y="166" width="36" height="36" fill="white"/>
<rect x="130" y="166" width="36" height="36" fill="white"/>
<rect x="166" y="166" width="36" height="36" fill="white"/>
<rect x="58" y="202" width="36" height="36" fill="white"/>
<rect x="58" y="238" width="36" height="36" fill="white"/>
<rect x="130" y="238" width="36" height="36" fill="white"/>
<rect x="166" y="238" width="36" height="36" fill="white"/>
<rect x="94" y="238" width="36" height="36" fill="white"/>
<rect x="58" y="310" width="36" height="36" fill="white"/>
<rect x="58" y="274" width="36" height="36" fill="white"/>
<rect x="310" y="166" width="36" height="36" fill="white"/>
<rect x="274" y="202" width="36" height="36" fill="white"/>
<rect x="274" y="274" width="36" height="36" fill="white"/>
<rect x="310" y="310" width="36" height="36" fill="white"/>
<rect x="418" y="274" width="36" height="36" fill="white"/>
<rect x="382" y="310" width="36" height="36" fill="white"/>
<rect x="346" y="310" width="36" height="36" fill="white"/>
<rect x="274" y="238" width="36" height="36" fill="white"/>
<rect x="382" y="166" width="36" height="36" fill="white"/>
<rect x="418" y="238" width="36" height="36" fill="white"/>
<rect x="382" y="238" width="36" height="36" fill="white"/>
<rect x="274" y="184" width="36" height="36" fill="white"/>
<rect x="346" y="166" width="36" height="36" fill="white"/>
<rect x="202" y="310" width="36" height="36" fill="white"/>
<rect x="202" y="274" width="36" height="36" fill="white"/>
<rect x="202" y="238" width="36" height="36" fill="white"/>
<rect x="202" y="202" width="36" height="36" fill="white"/>
</svg>
